<?xml version="1.0" standalone="no"?>
<!DOCTYPE svg PUBLIC "-//W3C//DTD SVG 20010904//EN"
 "http://www.w3.org/TR/2001/REC-SVG-20010904/DTD/svg10.dtd">
<svg version="1.0" xmlns="http://www.w3.org/2000/svg"
 width="1200.000000pt" height="1600.000000pt" viewBox="0 0 1200.000000 1600.000000"
 preserveAspectRatio="xMidYMid meet">

<g transform="translate(0.000000,1600.000000) scale(0.100000,-0.100000)"
fill="#000000" stroke="none">
<path d="M5475 14234 c-190 -50 -320 -109 -451 -201 -75 -54 -96 -70 -160
-129 -12 -12 -26 -19 -31 -15 -4 3 -1 -2 6 -12 12 -15 12 -17 -3 -11 -12 5
-19 0 -23 -15 -5 -19 -15 -26 -36 -22 -5 1 -6 -3 -2 -9 3 -6 10 -8 14 -6 13 9
5 -34 -9 -47 -12 -10 -12 -9 -1 6 15 19 15 19 -16 22 -12 1 -20 -2 -17 -7 3
-4 11 -5 17 -1 7 4 0 -9 -14 -28 -14 -18 -29 -44 -33 -56 -5 -15 -12 -20 -23
-16 -10 4 -14 2 -10 -4 4 -7 -6 -17 -23 -25 -17 -7 -28 -18 -26 -23 6 -18 -21
-47 -40 -43 -12 2 -19 -4 -22 -17 -2 -16 -1 -17 7 -5 6 8 11 10 11 4 0 -6 -12
-24 -27 -39 -16 -16 -22 -25 -15 -21 6 4 12 2 12 -3 0 -6 -5 -11 -11 -11 -17
0 -41 -29 -34 -40 4 -6 1 -9 -5 -8 -12 3 -17 -4 -45 -62 -9 -19 -24 -48 -32
-65 -9 -16 -17 -41 -19 -55 -2 -13 -8 -26 -13 -28 -6 -2 -11 -10 -11 -18 0 -9
-5 -13 -12 -9 -7 4 -4 -1 7 -11 16 -13 16 -15 3 -11 -18 6 -35 -24 -23 -43 9
-14 -13 -50 -30 -50 -14 0 -19 -14 -18 -47 0 -7 -4 -11 -11 -10 -6 1 -10 -4
-8 -12 2 -8 -2 -17 -8 -21 -17 -11 -49 -130 -65 -245 -16 -111 -13 -187 15
-370 10 -66 21 -154 25 -195 7 -91 23 -188 34 -215 16 -38 41 -120 41 -132 0
-7 -11 -13 -23 -13 -13 0 -32 -9 -42 -20 -16 -18 -16 -20 -1 -26 9 -3 14 -9
12 -13 -6 -10 43 -51 49 -41 12 19 43 10 61 -17 21 -33 36 -94 35 -142 -1 -21
5 -38 15 -46 14 -10 17 -33 19 -131 1 -65 -2 -125 -8 -131 -5 -7 -6 -13 -1
-13 4 0 -5 -14 -21 -30 -25 -26 -27 -34 -19 -57 9 -25 24 -33 87 -47 17 -4 27
-13 27 -24 0 -10 9 -25 20 -35 24 -20 25 -31 5 -51 -10 -10 -12 -17 -4 -21 6
-4 8 -14 5 -22 -4 -8 3 -22 15 -31 25 -21 39 -100 18 -112 -10 -7 -6 -12 13
-21 32 -14 88 -114 88 -156 0 -16 4 -33 9 -38 5 -6 31 -53 58 -105 87 -168
107 -202 141 -238 26 -28 32 -41 27 -63 -5 -22 0 -34 29 -63 20 -19 36 -40 36
-46 0 -5 7 -10 16 -10 11 0 14 -6 9 -21 -5 -15 -2 -22 14 -26 11 -3 19 -9 16
-13 -3 -4 2 -13 10 -20 19 -16 19 -64 0 -84 -14 -14 -14 -17 6 -37 20 -20 20
-23 6 -34 -14 -10 -12 -13 13 -28 18 -11 27 -23 24 -32 -4 -9 1 -18 12 -22 54
-19 97 -83 56 -83 -15 -1 -15 -2 2 -12 11 -6 42 -33 70 -60 28 -27 70 -57 93
-68 24 -10 43 -24 43 -30 0 -6 4 -9 10 -5 10 6 50 -15 50 -27 0 -5 -9 -8 -20
-8 -45 0 -8 -32 50 -45 19 -4 43 -14 52 -22 9 -8 25 -12 36 -9 10 4 36 -1 56
-9 42 -18 56 -14 36 10 -7 9 -11 18 -8 20 10 10 54 11 70 2 12 -8 27 -6 58 8
30 14 46 16 58 9 10 -6 32 -7 52 -3 38 8 65 -5 41 -20 -8 -5 -9 -11 -3 -15 6
-3 17 1 25 9 10 10 35 15 71 15 46 0 57 -4 74 -25 11 -14 23 -22 26 -16 9 14
92 23 113 13 10 -6 34 -18 53 -27 22 -11 37 -25 37 -37 3 -28 8 -31 31 -17 16
10 22 9 41 -10 11 -11 18 -21 14 -21 -3 0 2 -9 11 -19 17 -18 15 -56 -3 -71
-15 -12 -30 -50 -25 -63 3 -8 16 -20 30 -27 l24 -13 -22 -24 c-12 -13 -27 -23
-33 -23 -6 0 -22 -11 -34 -24 -14 -15 -29 -22 -39 -19 -10 4 -13 2 -8 -5 8
-13 61 -6 91 13 21 12 75 29 87 27 3 -1 20 14 37 34 17 19 39 34 48 32 11 -2
16 5 17 26 1 15 9 34 19 41 22 15 22 25 0 25 -15 0 -14 2 2 20 10 11 15 28 12
39 -3 14 -1 18 9 14 8 -3 14 0 14 6 0 6 6 11 14 11 7 0 25 11 41 25 22 21 30
23 41 14 12 -10 18 -8 30 9 18 26 34 29 34 6 0 -8 4 -13 9 -10 5 4 23 -2 40
-11 29 -17 30 -21 25 -63 -7 -60 -14 -83 -28 -92 -8 -6 -7 -8 2 -8 6 0 12 -4
12 -10 0 -5 -9 -10 -20 -10 -11 0 -20 -4 -20 -10 0 -5 5 -10 12 -10 6 0 2 -10
-9 -23 -11 -12 -30 -56 -42 -97 -12 -41 -25 -82 -28 -90 -4 -8 -7 -23 -8 -32
-3 -26 -26 -78 -35 -78 -12 0 -18 -46 -8 -63 11 -21 1 -42 -28 -58 -17 -9 -24
-19 -21 -31 3 -12 0 -18 -10 -18 -10 0 -14 -6 -10 -20 3 -11 2 -20 -3 -20 -4
0 -10 -9 -13 -20 -3 -11 -1 -18 4 -14 5 3 9 -6 9 -20 0 -15 -6 -26 -13 -26
-15 0 -50 -57 -52 -83 -1 -11 5 -21 12 -24 8 -3 11 -9 6 -12 -5 -3 -14 -23
-20 -44 -10 -32 -9 -36 2 -27 15 13 35 6 35 -12 0 -5 -7 -8 -15 -5 -22 9 -28
-10 -10 -35 8 -13 18 -23 22 -23 12 0 13 -55 3 -76 -9 -15 -7 -19 7 -19 15 0
16 -2 3 -10 -13 -9 -13 -12 3 -24 10 -8 14 -17 8 -20 -5 -3 -12 0 -14 6 -4 8
-6 7 -6 -4 -1 -9 -27 -36 -59 -60 -115 -86 -191 -124 -327 -164 -64 -18 -410
-36 -474 -24 -64 12 -254 110 -366 190 -83 59 -205 208 -205 253 0 9 -4 17 -9
17 -11 0 -78 89 -106 142 -66 121 -98 191 -100 220 -4 49 -4 50 -14 44 -4 -3
-6 5 -4 18 3 13 0 27 -6 30 -6 4 -11 17 -10 29 0 20 1 21 8 3 5 -14 10 -16 15
-8 4 7 4 17 1 22 -4 6 5 26 20 45 14 20 23 40 20 45 -12 20 24 10 38 -10 l14
-21 6 21 c3 11 2 18 -3 15 -10 -6 -35 23 -27 32 4 3 13 0 22 -7 8 -7 22 -9 31
-6 13 5 14 9 4 21 -7 8 -16 12 -21 9 -5 -3 -9 0 -9 6 0 7 8 9 19 5 16 -5 18
-2 14 15 -6 22 6 27 24 9 7 -7 19 -8 30 -4 10 5 24 7 31 6 6 -1 12 3 12 9 0 5
-9 10 -21 10 -16 0 -19 4 -14 20 4 11 2 20 -4 20 -6 0 -11 -7 -11 -15 0 -17
-16 -20 -25 -6 -3 5 1 15 8 23 8 7 12 19 9 27 -3 8 0 11 7 7 6 -4 22 1 36 11
47 34 23 107 -59 182 -17 16 -24 31 -20 43 3 10 2 23 -2 30 -4 7 -9 28 -11 48
-2 19 -8 36 -13 38 -5 2 -4 14 2 28 9 18 9 27 0 36 -7 7 -12 22 -12 34 0 12
-7 27 -15 34 -9 7 -14 19 -11 26 3 7 -2 18 -10 24 -16 14 -20 45 -4 35 6 -3
10 -1 10 5 0 6 -7 13 -16 17 -12 4 -15 14 -10 42 3 23 0 47 -10 66 -9 17 -14
51 -13 80 1 27 -1 57 -4 65 -3 8 -8 56 -12 105 -3 50 -9 93 -13 97 -4 4 -26 3
-50 -3 -24 -5 -103 -16 -175 -24 -211 -22 -386 -83 -542 -188 -85 -57 -221
-201 -317 -336 -45 -64 -115 -161 -156 -216 -90 -121 -122 -187 -129 -266 -7
-70 11 -59 -193 -125 -400 -128 -433 -143 -691 -322 -60 -42 -200 -198 -243
-272 -18 -31 -65 -98 -104 -150 -115 -151 -160 -258 -197 -470 -9 -52 -25
-138 -35 -190 -51 -260 -66 -351 -80 -475 -32 -296 -41 -386 -55 -555 -19
-223 -59 -549 -79 -645 -8 -38 -20 -124 -26 -190 -6 -66 -13 -129 -15 -140 -1
-11 -6 -56 -10 -100 -3 -44 -13 -114 -20 -155 -8 -41 -17 -106 -21 -144 -3
-38 -17 -108 -30 -155 -13 -47 -31 -113 -39 -146 -8 -33 -20 -75 -26 -93 -6
-17 -12 -123 -13 -235 l-3 -202 -67 -130 c-113 -218 -117 -230 -115 -353 1
-59 2 -127 3 -152 0 -41 -48 -214 -79 -285 -23 -52 -35 -147 -34 -272 0 -68
-2 -126 -5 -131 -13 -21 -37 -267 -35 -357 1 -55 -1 -107 -4 -115 -4 -8 -13
-59 -22 -113 -20 -117 -14 -235 15 -330 19 -60 19 -69 6 -109 -18 -52 -26
-226 -11 -232 5 -2 2 -5 -8 -5 -16 -1 -17 -11 -12 -116 4 -78 1 -148 -9 -217
-26 -173 -21 -350 11 -465 23 -83 24 -175 3 -203 -14 -18 -16 -30 -8 -49 7
-20 5 -28 -11 -41 -22 -17 -31 -57 -33 -145 -1 -93 17 -162 73 -268 11 -20 15
-37 10 -37 -6 0 -6 -11 -1 -29 4 -16 4 -33 0 -37 -4 -5 -11 -23 -14 -40 -6
-25 -2 -37 16 -57 l23 -25 495 -4 495 -3 3 25 c6 59 56 271 79 335 13 39 37
106 53 150 16 44 36 123 45 175 14 87 66 288 116 450 33 105 40 119 55 113 10
-4 13 0 8 13 -5 15 -4 16 4 5 6 -8 8 -20 5 -26 -2 -7 9 -32 24 -57 28 -44 28
-46 28 -204 -1 -130 -6 -185 -28 -299 -15 -77 -27 -156 -27 -176 0 -20 -6 -42
-13 -48 -9 -7 -14 -36 -15 -81 -1 -38 -6 -87 -11 -108 -16 -59 -33 -141 -40
-198 l-7 -52 101 -7 c55 -3 308 -8 561 -10 367 -2 482 0 560 11 55 8 164 19
244 24 80 5 163 14 185 19 60 15 355 2 440 -19 l70 -18 50 29 c128 73 121 72
252 53 135 -19 284 -14 376 11 56 15 63 15 155 -5 53 -12 113 -29 132 -38 26
-12 58 -14 130 -11 156 7 347 0 483 -18 96 -12 131 -13 140 -4 19 19 107 12
185 -15 l74 -25 321 4 c265 4 328 8 357 21 42 19 324 36 679 43 l234 4 -8 87
c-4 48 -11 146 -16 217 -5 72 -13 198 -20 280 -8 107 -8 204 -1 335 6 102 8
264 5 360 -5 161 -4 180 16 240 12 36 27 88 32 115 6 28 12 273 14 547 4 389
8 514 20 570 11 53 15 146 16 343 0 195 6 320 20 450 11 99 24 221 29 270 5
50 16 113 25 140 9 28 20 100 25 160 5 61 14 137 20 170 5 33 10 103 11 155
l1 95 15 -94 c8 -56 31 -137 57 -205 80 -210 141 -444 156 -611 10 -96 4 -138
-40 -280 -39 -130 -19 -364 39 -449 50 -72 80 -142 90 -207 5 -35 13 -176 16
-314 4 -141 12 -278 19 -315 8 -36 27 -128 44 -205 17 -77 41 -194 53 -260 12
-66 30 -163 41 -215 32 -166 56 -289 97 -510 22 -118 51 -268 65 -332 13 -64
29 -174 35 -245 11 -120 38 -303 46 -311 15 -15 182 -21 330 -11 132 8 219 8
390 -3 388 -23 564 -14 551 30 -19 60 -25 131 -16 181 5 31 12 166 15 301 3
135 8 256 10 270 2 14 9 131 15 260 6 129 15 254 20 277 14 61 23 259 22 483
-1 107 4 265 10 350 9 132 8 169 -5 250 -17 100 -32 247 -46 465 -9 126 -28
247 -56 350 -7 28 -16 131 -20 230 -4 99 -13 216 -20 260 -8 44 -19 124 -25
177 -5 54 -16 115 -24 135 -8 21 -17 70 -21 108 -14 153 -35 346 -50 460 -8
66 -19 170 -25 230 -6 61 -20 151 -31 200 -10 50 -19 104 -19 121 0 50 -37
239 -79 404 -22 85 -45 198 -51 250 -6 52 -19 142 -30 200 -10 58 -26 159 -36
225 -10 66 -28 156 -41 200 -25 84 -79 364 -93 476 -4 37 -11 72 -14 78 -4 6
-11 39 -17 73 -12 79 -59 289 -66 302 -4 5 -30 97 -59 205 -29 108 -69 248
-89 311 -20 63 -43 144 -51 180 -15 68 -73 202 -102 234 -9 10 -48 42 -87 71
-38 28 -101 82 -139 118 -37 37 -103 88 -145 114 -42 25 -92 56 -111 69 -64
40 -227 123 -347 175 -147 64 -393 186 -412 204 -12 12 -12 22 4 75 l19 62
-25 44 c-26 49 -116 144 -135 144 -14 0 -87 83 -216 245 -103 130 -214 241
-293 295 -77 53 -210 106 -315 125 -156 28 -161 31 -206 88 -71 89 -94 129
-94 161 0 32 36 119 69 165 11 15 23 44 27 66 4 22 15 57 25 80 10 22 21 65
25 95 4 30 13 67 21 83 8 16 14 60 15 105 0 42 5 97 10 122 5 25 9 65 10 90 0
42 4 49 88 137 130 135 145 161 159 264 8 62 9 112 1 175 -5 49 -10 150 -10
224 0 96 -6 169 -22 254 -22 118 -22 119 -63 148 -22 16 -53 32 -68 35 -37 7
-47 30 -47 102 0 62 -46 303 -79 413 -11 35 -22 79 -26 98 -24 127 -132 387
-209 503 -59 88 -215 250 -321 334 -119 92 -225 167 -225 157 0 -3 -7 -1 -15
6 -8 6 -20 8 -26 4 -7 -4 -9 -3 -5 4 7 11 -9 25 -32 28 -8 2 -22 10 -32 19
-40 37 -165 87 -350 141 -47 14 -114 35 -150 46 -49 15 -100 21 -205 23 -77 2
-149 2 -160 -1z m-192 -408 c15 2 27 -1 27 -7 0 -5 -8 -9 -17 -9 -10 0 -26
-12 -36 -25 -21 -29 -12 -33 16 -7 19 17 19 16 12 -15 -6 -29 -4 -33 14 -33
12 0 21 5 21 10 0 6 -5 10 -12 10 -6 0 -8 3 -5 6 3 4 23 -1 42 -11 33 -15 38
-15 54 -1 13 12 20 13 29 4 7 -7 12 -18 12 -25 0 -8 12 -13 30 -13 18 0 33 -6
36 -15 5 -11 11 -12 24 -5 21 11 66 -2 72 -21 3 -8 26 -11 66 -10 59 1 63 0
73 -26 l10 -27 12 24 c14 29 47 39 47 16 0 -9 -5 -16 -11 -16 -5 0 -7 -4 -4
-10 3 -5 15 -10 25 -10 13 0 17 -5 14 -15 -4 -11 -2 -13 9 -10 8 4 17 -1 20
-9 9 -23 27 -20 27 5 0 12 5 19 13 16 6 -2 12 -17 12 -32 0 -23 6 -30 30 -37
39 -10 56 -3 49 19 -5 15 -4 15 4 3 6 -8 9 -26 8 -40 -2 -14 -1 -17 1 -7 5 18
15 22 27 10 4 -5 13 -8 19 -8 7 0 12 -11 12 -25 0 -20 6 -25 28 -26 32 -1 50
-14 20 -14 -12 0 -24 -7 -27 -16 -9 -24 -7 -36 4 -29 6 4 8 11 5 16 -4 5 1 9
9 9 22 0 20 -9 -7 -34 -20 -18 -21 -24 -10 -34 15 -15 17 -42 3 -42 -5 0 -10
8 -10 18 -1 15 -2 15 -10 1 -11 -19 8 -69 27 -69 6 0 15 -9 18 -20 3 -11 15
-25 26 -31 11 -5 17 -13 15 -18 -3 -4 5 -7 17 -7 12 1 21 -4 20 -11 -2 -7 6
-17 17 -23 12 -6 17 -16 13 -22 -3 -7 -6 -35 -5 -64 1 -57 -9 -71 -65 -95 -23
-10 -29 -17 -22 -25 13 -16 -29 -30 -44 -15 -20 20 -71 12 -96 -14 -13 -14
-31 -25 -40 -25 -10 0 -23 -11 -29 -25 -6 -14 -18 -25 -27 -25 -8 0 -15 -7
-15 -15 0 -16 -20 -56 -32 -65 -4 -3 -9 -15 -11 -25 -1 -11 -6 -26 -11 -33
-18 -29 -16 -79 4 -105 24 -30 25 -37 5 -37 -8 0 -14 -3 -13 -7 1 -5 -2 -20
-6 -36 -6 -18 -4 -33 4 -42 11 -13 10 -27 -1 -73 -7 -31 -13 -61 -11 -65 1 -4
2 -38 2 -75 -1 -37 -1 -78 0 -90 0 -15 -7 -26 -19 -29 -13 -3 -18 -10 -13 -21
5 -15 3 -15 -10 -4 -11 9 -18 10 -23 2 -3 -5 5 -14 18 -19 37 -14 73 -94 47
-103 -7 -2 -5 -16 6 -37 9 -18 16 -53 16 -77 -1 -32 3 -44 13 -44 15 0 145
-127 145 -142 0 -5 -6 -11 -14 -14 -12 -5 -13 -11 -4 -30 6 -13 15 -24 20 -24
4 0 8 -7 8 -15 0 -8 5 -15 10 -15 6 0 10 -5 10 -11 0 -5 -5 -7 -11 -3 -7 4 -9
0 -5 -14 5 -15 2 -22 -11 -26 -19 -6 -53 -55 -53 -75 0 -29 -67 -71 -114 -71
-19 0 -36 -5 -38 -11 -2 -7 -22 -2 -56 15 -61 31 -176 60 -208 52 -42 -11 -54
-32 -47 -86 5 -41 3 -50 -10 -50 -26 0 -77 50 -77 75 0 13 -5 27 -11 30 -24
16 31 143 71 165 22 12 70 106 70 138 0 12 6 22 13 22 8 0 7 4 -3 10 -8 5 -22
9 -30 9 -10 0 -11 -2 -2 -6 25 -10 11 -18 -28 -17 -34 2 -40 -1 -40 -19 0 -20
0 -20 -15 -1 -13 17 -14 17 -15 2 0 -10 -6 -18 -13 -18 -13 0 -33 -21 -55 -59
-10 -17 -10 -26 -2 -36 7 -8 9 -24 5 -36 -6 -17 -4 -21 9 -16 21 8 31 -9 11
-21 -12 -6 -14 -14 -6 -34 8 -20 5 -28 -12 -43 -14 -12 -17 -20 -9 -23 9 -3 9
-9 1 -23 -12 -24 -3 -59 17 -59 10 0 14 -14 14 -54 0 -63 -25 -113 -79 -161
-29 -26 -42 -30 -95 -31 -97 -2 -99 -2 -91 -21 4 -13 -5 -28 -34 -53 -35 -30
-42 -42 -44 -80 -4 -50 9 -106 31 -132 8 -9 11 -22 7 -28 -11 -18 22 -59 44
-53 10 2 22 0 25 -6 7 -11 35 -129 40 -165 1 -11 7 -21 12 -23 14 -5 56 90 48
110 -5 14 0 16 35 13 23 -2 49 -10 57 -17 13 -10 16 -9 21 10 4 14 11 20 20
17 8 -3 22 -6 32 -6 9 0 27 -9 39 -21 12 -11 27 -17 34 -13 7 4 8 3 4 -4 -4
-8 0 -12 11 -12 10 -1 36 -9 58 -20 22 -11 46 -19 54 -20 7 0 11 -6 8 -13 -3
-8 -1 -20 4 -28 5 -8 9 -9 9 -3 0 18 47 26 71 13 16 -8 23 -8 29 1 6 10 73 17
130 12 14 -2 36 -2 50 -1 70 4 64 -13 -7 -19 -26 -2 -60 -10 -75 -18 -15 -8
-38 -12 -51 -9 -12 4 -35 2 -49 -4 -18 -7 -28 -7 -30 1 -3 7 -15 7 -43 -1 -25
-6 -41 -7 -45 -1 -3 5 -14 1 -23 -10 -9 -11 -23 -20 -32 -20 -9 0 -12 -6 -9
-15 4 -8 1 -15 -6 -15 -27 0 -1 -24 28 -25 21 0 37 -9 52 -27 26 -33 50 -41
84 -28 21 8 28 7 33 -5 3 -10 12 -13 24 -10 13 4 19 1 19 -9 0 -12 6 -13 31
-6 23 7 31 6 36 -6 3 -7 11 -14 19 -14 8 0 14 -8 14 -18 0 -10 14 -37 32 -60
26 -33 34 -39 41 -27 13 25 30 18 23 -10 -5 -21 -3 -24 16 -22 20 2 23 -2 20
-26 -2 -23 3 -30 33 -43 34 -14 38 -13 65 6 17 12 30 26 30 31 0 16 -29 22
-45 9 -19 -16 -65 1 -65 24 0 33 101 72 157 61 21 -5 31 -10 21 -12 -9 -2 -15
-10 -12 -17 3 -8 -2 -16 -10 -19 -9 -4 -13 -13 -10 -22 4 -9 13 -14 20 -11 17
6 19 -25 3 -41 -8 -8 -2 -19 22 -42 17 -17 37 -31 43 -32 6 0 0 -5 -14 -10
-17 -7 -26 -7 -28 1 -2 6 -15 22 -27 36 l-24 25 -11 -21 c-7 -13 -9 -37 -5
-61 6 -35 4 -41 -14 -46 -11 -3 -18 -9 -16 -14 3 -4 -3 -17 -13 -27 -24 -24
-34 -50 -20 -54 6 -2 4 -9 -5 -16 -12 -10 -15 -10 -14 0 2 36 -17 78 -34 78
-14 0 -19 7 -19 30 0 20 -5 30 -15 30 -10 0 -15 10 -15 33 0 19 -3 36 -6 40
-11 11 -34 -5 -34 -25 0 -14 -5 -18 -16 -14 -9 3 -20 6 -26 6 -6 0 -8 9 -5 20
3 11 1 20 -4 20 -5 0 -9 9 -9 19 0 11 -4 23 -10 26 -5 3 -10 1 -10 -4 0 -6 -7
-11 -16 -11 -14 0 -15 2 -3 17 12 14 12 16 -1 11 -8 -2 -17 -14 -20 -26 -4
-16 -9 -19 -20 -12 -8 5 -15 13 -15 17 0 4 -8 19 -18 33 -15 21 -20 23 -37 12
-12 -7 -20 -8 -20 -2 0 18 -40 11 -58 -11 -9 -11 -27 -25 -39 -30 -13 -5 -23
-15 -23 -24 0 -22 -21 -18 -27 5 -4 16 -14 20 -44 20 -23 0 -39 -5 -39 -12 0
-6 -3 -8 -6 -5 -4 4 0 17 9 30 14 22 14 26 0 40 -11 11 -12 20 -5 32 13 25 3
55 -19 55 -11 0 -19 7 -19 15 0 8 -18 32 -39 54 -22 22 -42 49 -46 61 -3 11
-11 20 -16 20 -5 0 -9 9 -9 20 0 24 -31 27 -49 6 -14 -17 -51 -28 -51 -15 0 5
-9 18 -19 28 -19 19 -20 19 -26 -9 -3 -16 -13 -34 -21 -41 -12 -10 -16 -9 -21
9 -3 13 -13 22 -24 22 -11 0 -19 7 -19 15 0 8 -4 15 -10 15 -5 0 -10 -7 -10
-15 0 -8 -4 -15 -10 -15 -13 0 -13 16 2 56 10 28 9 39 -8 71 -10 21 -23 40
-27 42 -11 4 -47 88 -47 107 0 31 -90 90 -98 65 -2 -6 -9 -11 -16 -11 -20 0
-51 -77 -38 -93 8 -10 6 -16 -8 -25 -16 -10 -22 -7 -38 15 l-19 27 33 52 c38
59 41 76 18 98 -17 18 -34 13 -34 -11 0 -8 -10 -28 -21 -45 -20 -28 -22 -28
-34 -11 -10 15 -11 28 -2 59 13 50 4 82 -18 64 -8 -7 -16 -9 -16 -4 -4 24 -6
42 -8 77 0 23 -5 36 -11 32 -6 -4 -10 5 -10 19 0 15 -6 26 -14 26 -14 0 -47
86 -91 240 -14 52 -36 120 -47 150 -24 65 -43 163 -63 322 -16 130 -20 152
-40 223 -29 101 -48 181 -52 225 -3 25 -10 51 -15 57 -6 7 -10 28 -10 48 0 19
-4 35 -9 35 -4 0 -6 7 -3 15 4 9 0 15 -7 15 -10 0 -10 3 -3 8 6 4 14 28 18 55
4 26 11 47 16 47 4 0 11 18 15 40 4 22 11 40 16 40 5 0 9 9 9 19 0 11 8 22 18
24 14 4 14 6 -5 12 -23 7 -29 29 -17 59 3 9 10 13 15 10 5 -3 9 4 9 15 0 18
106 134 130 143 5 2 10 10 12 18 2 8 9 21 16 28 16 18 102 25 119 10 7 -6 22
-8 33 -5 32 8 24 -8 -32 -66 -37 -37 -52 -60 -50 -75 2 -12 -1 -22 -7 -22 -6
0 -11 9 -11 20 0 11 -4 20 -10 20 -14 0 -13 -33 2 -48 9 -9 9 -12 0 -12 -9 0
-9 -5 0 -20 9 -15 10 -25 2 -37 -6 -10 -10 -39 -10 -66 1 -26 -2 -47 -6 -47
-5 0 -8 -11 -8 -24 0 -16 -7 -27 -20 -31 -11 -3 -20 -11 -20 -16 0 -6 -4 -8
-9 -5 -13 9 -20 -16 -9 -36 6 -13 3 -21 -12 -30 -11 -7 -20 -16 -20 -21 0 -4
5 -5 10 -2 16 10 11 -31 -5 -45 -8 -7 -15 -22 -15 -34 0 -12 -4 -26 -9 -31
-16 -16 -24 -142 -10 -150 8 -6 7 -10 -2 -16 -11 -7 -10 -11 5 -22 13 -10 17
-21 13 -37 -4 -15 3 -39 19 -67 13 -24 22 -48 19 -53 -5 -8 18 -20 38 -20 7 0
6 4 -3 10 -12 8 -12 10 5 10 40 0 45 -14 44 -129 0 -29 -4 -62 -10 -72 -5 -11
-7 -24 -4 -29 3 -6 0 -10 -7 -10 -8 0 -13 -10 -13 -25 2 -35 12 -41 35 -20 11
10 23 15 27 12 4 -4 17 2 29 14 27 25 39 11 22 -26 -16 -35 2 -53 26 -26 14
15 15 24 6 40 -9 18 -8 21 9 21 10 0 21 7 25 15 9 23 48 35 66 20 20 -17 196
-29 205 -15 4 6 13 9 21 6 8 -3 14 -2 14 3 0 4 25 16 55 26 30 11 55 22 55 26
0 4 29 17 65 30 44 15 64 27 61 36 -3 8 2 13 12 13 9 0 29 11 44 25 15 14 30
25 33 25 3 0 22 11 42 25 39 26 63 20 63 -14 0 -9 6 -25 14 -36 7 -11 17 -35
21 -52 5 -26 12 -33 31 -33 19 0 28 8 35 30 6 17 16 30 23 30 8 0 12 20 13 55
1 30 7 72 14 92 9 28 9 38 0 41 -6 2 -11 21 -11 42 0 21 -9 57 -20 81 -11 24
-20 53 -20 64 0 21 -50 75 -69 75 -6 0 -11 5 -11 10 0 6 10 10 22 10 21 0 21
1 6 17 -13 12 -20 13 -30 5 -17 -13 -70 29 -58 47 8 15 1 61 -13 79 -6 8 -6
12 2 12 8 0 4 11 -8 29 -12 16 -21 35 -21 43 0 19 -23 68 -32 68 -5 0 -8 11
-8 23 0 13 -8 32 -19 41 -17 16 -19 16 -24 -5 -5 -18 -10 -20 -39 -13 -18 4
-42 7 -53 6 -11 0 -83 -1 -160 -1 -154 -1 -241 14 -239 42 2 21 -88 42 -117
27 -13 -8 -19 -7 -19 0 0 6 -12 15 -26 20 -29 11 -26 21 26 70 14 14 29 33 33
43 5 14 14 17 44 12 27 -4 32 -3 18 4 -19 8 -19 9 5 12 23 4 24 7 25 76 0 40
-3 67 -7 60 -4 -7 -5 6 -1 27 l6 39 -35 -26 c-35 -27 -68 -35 -68 -17 0 6 8
10 18 10 10 1 1 9 -21 21 -22 11 -44 18 -51 16 -7 -3 -18 4 -25 14 -9 16 -9
23 4 35 10 10 13 24 9 37 -6 18 -3 19 25 14 20 -4 30 -3 26 3 -4 6 1 13 10 16
10 4 14 14 10 28 -2 11 -2 15 1 9 3 -7 9 -13 14 -13 10 0 23 58 20 89 -1 18 2
22 14 18 8 -3 18 -2 21 3 4 6 1 10 -6 10 -7 0 -2 12 12 28 14 15 31 40 39 56
8 16 21 31 30 34 8 3 18 10 22 16 4 6 8 -5 9 -24 1 -31 2 -32 8 -10 4 14 13
25 21 25 8 0 15 7 15 15 0 19 26 31 41 19 7 -6 15 0 23 17 8 19 17 25 31 21
16 -4 20 0 20 20 0 16 7 27 20 30 11 3 20 11 20 18 0 7 12 18 28 24 20 8 28
19 29 42 2 26 0 29 -19 23 -13 -4 -18 -2 -14 4 3 6 2 13 -4 17 -9 5 -15 -23
-11 -48 2 -13 -30 -20 -42 -8 -8 8 -7 11 6 11 13 0 16 7 13 30 -2 17 3 35 10
41 11 9 14 8 14 0 0 -7 4 -10 9 -6 5 3 12 1 16 -5 10 -17 23 -11 27 12 3 20
13 25 63 32 13 2 20 10 19 24 0 14 3 19 10 14 6 -5 23 -7 39 -6z m-303 -276
c0 -5 -4 -10 -10 -10 -5 0 -10 5 -10 10 0 6 5 10 10 10 6 0 10 -4 10 -10z
m-343 -506 c-3 -3 -12 -4 -19 -1 -8 3 -5 6 6 6 11 1 17 -2 13 -5z m127 -35
c17 -20 17 -23 1 -38 -15 -15 -16 -15 -9 3 5 12 2 22 -9 28 -17 9 -23 28 -9
28 4 0 16 -10 26 -21z m-117 -21 c-3 -8 -6 -5 -6 6 -1 11 2 17 5 13 3 -3 4
-12 1 -19z m-337 -23 c14 -19 14 -19 -2 -6 -10 7 -18 18 -18 24 0 6 1 8 3 6 1
-2 9 -13 17 -24z m5 -45 c3 -5 1 -10 -4 -10 -6 0 -11 5 -11 10 0 6 2 10 4 10
3 0 8 -4 11 -10z m180 -39 c3 -5 1 -12 -5 -16 -5 -3 -10 1 -10 9 0 18 6 21 15
7z m295 -170 c0 -6 -4 -13 -10 -16 -5 -3 -10 1 -10 9 0 9 5 16 10 16 6 0 10
-4 10 -9z m1584 -372 c-3 -5 -10 -7 -15 -3 -5 3 -7 10 -3 15 3 5 10 7 15 3 5
-3 7 -10 3 -15z m-1294 -209 c0 -5 -4 -10 -10 -10 -5 0 -10 5 -10 10 0 6 5 10
10 10 6 0 10 -4 10 -10z m-135 -90 c8 0 19 -9 25 -20 13 -24 7 -26 -14 -4 -9
8 -16 11 -16 5 0 -16 -26 -13 -40 4 -10 12 -10 18 1 31 11 14 13 14 21 0 5 -9
15 -16 23 -16z m1398 -61 c23 -10 56 -19 74 -19 17 0 34 -4 38 -9 3 -5 26 -9
52 -8 28 1 48 -3 50 -10 3 -7 11 -9 20 -6 10 4 14 2 10 -3 -4 -6 19 -5 56 2
48 10 63 10 69 1 5 -8 8 -9 8 -1 0 12 41 27 49 18 3 -3 -1 -10 -9 -15 -11 -8
-8 -9 13 -4 19 4 26 2 22 -5 -4 -6 8 -10 32 -10 27 0 34 -3 23 -10 -12 -7 -12
-12 4 -29 18 -20 20 -20 33 -3 13 15 14 14 10 -11 -4 -24 -1 -28 14 -24 23 6
35 -10 34 -45 0 -16 3 -28 7 -28 4 0 8 -13 8 -30 0 -16 5 -30 10 -30 15 0 12
-17 -4 -23 -8 -3 -13 1 -12 10 0 9 -5 18 -11 20 -8 3 -13 -4 -13 -16 0 -12 6
-30 13 -42 10 -17 9 -22 -6 -30 -15 -9 -17 -18 -11 -55 5 -35 3 -45 -10 -50
-15 -6 -15 -8 -2 -18 13 -9 18 -33 28 -131 1 -5 -4 -34 -11 -63 -11 -42 -16
-50 -27 -41 -7 6 -18 8 -24 4 -5 -3 -10 -1 -10 6 0 10 -3 10 -11 2 -13 -13 -3
-36 12 -28 5 4 9 -1 9 -9 0 -9 -7 -16 -15 -16 -8 0 -15 -4 -15 -10 0 -5 9 -10
20 -10 24 0 26 -15 3 -24 -25 -10 -37 9 -35 54 2 28 -3 45 -18 60 -11 11 -20
24 -20 30 0 5 -12 17 -27 27 -36 24 -113 100 -113 113 0 5 -17 18 -37 29 -22
11 -44 32 -51 48 -7 17 -25 36 -40 44 -47 24 -120 79 -126 94 -3 8 -12 15 -21
15 -26 0 -65 31 -65 51 0 11 -3 18 -7 17 -5 -2 -10 1 -13 6 -3 5 13 11 35 13
21 2 45 9 52 15 9 7 13 7 13 -1 0 -17 17 -13 24 5 7 18 -16 44 -39 44 -26 0
-157 59 -172 78 -40 51 -48 65 -34 70 11 4 11 6 0 14 -25 17 121 -3 164 -23z
m-1488 -249 c3 -5 -3 -10 -15 -10 -12 0 -18 5 -15 10 3 6 10 10 15 10 5 0 12
-4 15 -10z m635 -8 c0 -5 -7 -17 -15 -28 -14 -19 -14 -19 -15 2 0 11 3 24 7
27 9 10 23 9 23 -1z m700 -51 c0 -5 6 -9 13 -8 30 1 48 -4 43 -12 -3 -4 -1
-22 4 -39 4 -17 5 -43 1 -58 -6 -23 -8 -24 -20 -10 -7 8 -27 18 -45 21 -22 5
-36 15 -45 36 -7 16 -20 29 -29 29 -14 0 -15 2 -2 9 8 6 18 7 22 4 12 -7 39
17 32 28 -3 5 2 9 10 9 9 0 16 -4 16 -9z m-790 -75 c0 -3 -4 -8 -10 -11 -5 -3
-10 -1 -10 4 0 6 5 11 10 11 6 0 10 -2 10 -4z m1600 -50 c0 -3 -4 -8 -10 -11
-5 -3 -10 -1 -10 4 0 6 5 11 10 11 6 0 10 -2 10 -4z m-10 -36 c0 -18 -19 -20
-23 -3 -3 11 -5 8 -6 -9 0 -16 4 -28 10 -28 5 0 7 -5 3 -11 -11 -19 -34 33
-23 53 9 17 39 15 39 -2z m-33 -92 c-3 -8 -6 -5 -6 6 -1 11 2 17 5 13 3 -3 4
-12 1 -19z m-2437 -158 c0 -5 -4 -10 -9 -10 -6 0 -13 5 -16 10 -3 6 1 10 9 10
9 0 16 -4 16 -10z m2370 -115 c0 -14 -4 -25 -9 -25 -4 0 -6 11 -3 25 2 14 6
25 8 25 2 0 4 -11 4 -25z m-6 -57 c5 -23 5 -58 0 -58 -19 0 -34 17 -34 39 0
44 26 58 34 19z m-16 -90 c15 -15 16 -58 2 -58 -5 0 -10 -13 -10 -30 0 -20 -5
-30 -15 -30 -8 0 -15 -5 -15 -11 0 -16 -20 1 -30 25 -9 25 5 46 31 46 15 0 17
6 12 35 -6 36 4 44 25 23z m-924 -43 c-7 -17 -20 -20 -28 -6 -7 10 3 21 20 21
8 0 11 -6 8 -15z m748 -161 c4 -49 -1 -58 -25 -48 -23 8 -29 34 -12 50 8 8 12
21 9 29 -4 9 0 15 9 15 11 0 16 -13 19 -46z m-647 -54 c3 -5 -1 -10 -10 -10
-9 0 -13 5 -10 10 3 6 8 10 10 10 2 0 7 -4 10 -10z m-115 -42 c0 -22 -14 -23
-35 -2 -14 15 -14 17 2 29 20 15 33 4 33 -27z m75 -6 c-7 -8 -37 10 -42 25 -3
7 6 13 19 15 16 2 24 -3 26 -15 2 -10 1 -22 -3 -25z m655 29 c0 -6 -9 -9 -19
-8 -11 0 -17 5 -15 9 7 11 34 10 34 -1z m-822 -36 c0 -19 -6 -25 -22 -25 -31
0 -48 14 -40 33 4 10 17 17 34 17 23 0 28 -4 28 -25z m-964 -88 c5 -21 3 -28
-6 -25 -7 3 -16 21 -19 42 -5 30 -4 35 6 24 7 -7 16 -26 19 -41z m80 -33 c20
-20 20 -33 0 -41 -18 -7 -34 12 -34 40 0 21 14 22 34 1z m-74 -20 c0 -8 -4
-12 -10 -9 -5 3 -10 10 -10 16 0 5 5 9 10 9 6 0 10 -7 10 -16z m190 -140 c0
-17 -26 -19 -36 -3 -7 12 15 31 28 23 4 -3 8 -12 8 -20z m1360 -24 c0 -16 5
-30 11 -30 5 0 8 -4 4 -9 -3 -6 3 -15 12 -21 16 -10 15 -10 -4 -5 -16 4 -23 1
-28 -15 -7 -24 -18 -25 -38 -6 -9 10 -24 12 -47 7 -28 -5 -35 -13 -43 -40 -7
-30 -5 -36 25 -61 l32 -27 -24 -8 c-15 -5 -25 -4 -28 4 -6 18 -19 13 -25 -9
-5 -21 -37 -28 -37 -9 0 6 -9 9 -19 6 -15 -4 -18 0 -16 20 1 13 7 29 14 36 6
6 11 33 11 59 0 67 30 98 95 98 34 0 45 4 45 16 0 8 4 13 10 9 5 -3 7 -12 4
-20 -3 -8 1 -22 10 -30 17 -18 20 -13 16 38 -1 15 3 27 9 27 6 0 11 -13 11
-30z m37 -12 c-3 -8 -6 -5 -6 6 -1 11 2 17 5 13 3 -3 4 -12 1 -19z m-1182
-148 c-3 -5 -11 -10 -16 -10 -6 0 -7 5 -4 10 3 6 11 10 16 10 6 0 7 -4 4 -10z
m165 -64 c0 -2 -9 -6 -20 -9 -11 -3 -20 -1 -20 4 0 5 9 9 20 9 11 0 20 -2 20
-4z m319 -65 c-3 -6 -10 -7 -18 -2 -7 5 -10 14 -6 21 9 14 29 -2 24 -19z
m-279 -16 c-7 -8 -20 -15 -28 -15 -13 0 -12 3 4 15 25 19 40 19 24 0z m-355
-254 c3 -5 1 -12 -5 -16 -5 -3 -10 1 -10 9 0 18 6 21 15 7z m180 -225 c14 -8
23 -16 18 -19 -12 -7 -53 11 -53 23 0 13 2 13 35 -4z m1342 -278 c-3 -8 -6 -5
-6 6 -1 11 2 17 5 13 3 -3 4 -12 1 -19z m-177 -158 c0 -5 -5 -10 -11 -10 -5 0
-7 5 -4 10 3 6 8 10 11 10 2 0 4 -4 4 -10z m-1420 -151 c0 -5 -4 -9 -10 -9 -5
0 -10 7 -10 16 0 8 5 12 10 9 6 -3 10 -10 10 -16z m-113 -151 c-3 -8 -6 -5 -6
6 -1 11 2 17 5 13 3 -3 4 -12 1 -19z m-140 -1867 c-23 -22 -44 -35 -46 -29 -5
14 54 68 74 68 8 0 -5 -18 -28 -39z m95 -58 c-10 -12 -24 -21 -32 -20 -24 4
-57 -41 -58 -79 -1 -28 6 -42 33 -68 19 -19 31 -36 28 -40 -4 -3 1 -6 10 -6
10 0 17 -4 17 -10 0 -11 -25 -3 -54 16 -53 36 -71 118 -42 188 20 48 50 67 86
53 27 -10 28 -11 12 -34z m60 -55 c-7 -7 -12 -8 -12 -2 0 14 12 26 19 19 2 -3
-1 -11 -7 -17z m-69 -49 c-6 -6 -17 -8 -24 -3 -9 5 -8 9 7 14 23 9 31 3 17
-11z m112 -9 c-3 -5 -11 -10 -16 -10 -6 0 -7 5 -4 10 3 6 11 10 16 10 6 0 7
-4 4 -10z m-55 -39 c0 -5 -7 -12 -16 -15 -24 -9 -28 -7 -14 9 14 17 30 20 30
6z m142 -28 c-38 -69 -139 -116 -203 -96 l-34 11 49 1 c63 1 127 32 161 77 28
36 45 41 27 7z m-147 -53 c-3 -5 -12 -10 -18 -10 -7 0 -6 4 3 10 19 12 23 12
15 0z m889 -877 c-50 -74 -74 -136 -74 -190 0 -34 -4 -52 -10 -48 -5 3 -10 34
-10 68 0 50 6 72 30 114 25 43 62 83 78 83 3 0 -4 -12 -14 -27z m-2540 -1953
c45 -117 48 -129 42 -191 -4 -42 -17 -91 -37 -135 -28 -61 -30 -74 -23 -119 5
-27 9 -100 9 -160 0 -124 -28 -239 -71 -292 l-23 -28 -1 48 c0 44 -2 49 -31
59 l-30 10 21 23 c21 22 22 30 15 127 -6 86 -4 110 11 148 9 25 17 63 16 85
-1 76 -28 350 -50 515 -14 101 -13 105 36 108 23 2 42 8 43 15 0 7 6 -10 13
-38 7 -27 34 -106 60 -175z m2438 155 c-61 -26 -120 -92 -138 -153 -8 -31 -14
-68 -12 -83 3 -19 0 -25 -9 -22 -21 8 -15 83 11 138 34 72 109 134 161 134 14
0 10 -4 -13 -14z m177 -296 c-19 -12 -24 -2 -8 17 9 11 14 13 17 4 3 -7 -2
-16 -9 -21z m-2739 -1008 c0 -53 -31 -143 -66 -194 l-36 -52 7 55 c9 78 25
148 47 199 15 36 21 41 33 31 8 -7 15 -24 15 -39z m2618 -440 c3 -8 -1 -12 -9
-9 -20 8 -108 -27 -137 -54 -47 -44 -72 -94 -72 -145 1 -57 16 -87 56 -114 55
-36 168 -18 196 30 14 26 58 49 58 31 0 -17 -79 -78 -123 -95 -141 -54 -260
62 -212 206 29 87 89 139 185 159 43 9 52 8 58 -9z m112 -50 c17 -32 11 -48
-7 -21 -9 14 -22 28 -27 32 -7 5 -4 8 6 8 10 0 22 -9 28 -19z m15 -140 c3 -5
1 -12 -5 -16 -5 -3 -10 1 -10 9 0 18 6 21 15 7z m-3019 -208 c-18 -33 -21 -26
-6 13 6 15 13 24 16 21 3 -3 -1 -18 -10 -34z m-32 -145 c-9 -82 -32 -151 -66
-202 -17 -26 -32 -46 -33 -44 -2 2 12 47 31 102 19 54 34 104 34 111 0 16 29
85 35 85 3 0 2 -24 -1 -52z m2756 -1115 c-53 -48 -110 -145 -110 -189 0 -30
23 -57 61 -69 22 -8 28 -13 18 -17 -8 -3 -31 1 -51 9 -72 29 -73 118 -2 216
19 26 43 51 52 54 9 4 28 15 41 25 48 37 42 17 -9 -29z m140 -178 c0 -8 -7
-15 -15 -15 -9 0 -12 6 -9 15 4 8 10 15 15 15 5 0 9 -7 9 -15z m-4440 -86 c0
-5 -4 -9 -10 -9 -5 0 -10 7 -10 16 0 8 5 12 10 9 6 -3 10 -10 10 -16z"/>
<path d="M5170 13744 c0 -17 14 -18 28 -1 8 10 6 13 -9 14 -10 1 -19 -5 -19
-13z"/>
<path d="M5207 13723 c-4 -3 -7 -15 -7 -25 0 -17 1 -17 19 -1 11 9 18 20 15
25 -6 10 -18 10 -27 1z"/>
<path d="M5570 13670 c0 -5 5 -10 10 -10 6 0 10 5 10 10 0 6 -4 10 -10 10 -5
0 -10 -4 -10 -10z"/>
<path d="M6030 13350 c0 -5 5 -10 10 -10 6 0 10 5 10 10 0 6 -4 10 -10 10 -5
0 -10 -4 -10 -10z"/>
<path d="M4695 13160 c-3 -5 1 -10 9 -10 9 0 16 5 16 10 0 6 -4 10 -9 10 -6 0
-13 -4 -16 -10z"/>
<path d="M4640 13120 c0 -5 5 -10 10 -10 6 0 10 5 10 10 0 6 -4 10 -10 10 -5
0 -10 -4 -10 -10z"/>
<path d="M4830 12934 c0 -25 3 -35 10 -28 15 15 17 56 3 61 -9 3 -13 -7 -13
-33z"/>
<path d="M4598 12883 c12 -2 30 -2 40 0 9 3 -1 5 -23 4 -22 0 -30 -2 -17 -4z"/>
<path d="M4660 12870 c0 -5 4 -10 9 -10 6 0 13 5 16 10 3 6 -1 10 -9 10 -9 0
-16 -4 -16 -10z"/>
<path d="M4545 12797 c-4 -11 -2 -30 6 -44 12 -24 14 -24 17 -7 2 11 -1 31 -7
44 -8 22 -10 23 -16 7z"/>
<path d="M4500 12790 c0 -5 -7 -10 -15 -10 -16 0 -20 -12 -8 -23 7 -8 43 21
43 35 0 4 -4 8 -10 8 -5 0 -10 -4 -10 -10z"/>
<path d="M4527 12734 c-7 -8 4 -44 14 -44 12 0 12 37 0 44 -4 3 -11 3 -14 0z"/>
<path d="M4410 12679 c0 -5 5 -7 10 -4 6 3 10 8 10 11 0 2 -4 4 -10 4 -5 0
-10 -5 -10 -11z"/>
<path d="M5220 11310 c0 -5 5 -10 10 -10 6 0 10 5 10 10 0 6 -4 10 -10 10 -5
0 -10 -4 -10 -10z"/>
<path d="M5160 10520 c0 -5 5 -10 11 -10 5 0 7 5 4 10 -3 6 -8 10 -11 10 -2 0
-4 -4 -4 -10z"/>
<path d="M5225 10480 c-3 -5 -1 -10 4 -10 6 0 11 5 11 10 0 6 -2 10 -4 10 -3
0 -8 -4 -11 -10z"/>
<path d="M6072 10050 c0 -19 2 -27 5 -17 2 9 2 25 0 35 -3 9 -5 1 -5 -18z"/>
<path d="M6395 10310 c3 -5 8 -10 11 -10 2 0 4 5 4 10 0 6 -5 10 -11 10 -5 0
-7 -4 -4 -10z"/>
<path d="M4255 11742 c-26 -18 -36 -79 -25 -153 14 -93 54 -226 77 -259 18
-25 18 -25 25 70 4 52 11 138 16 190 5 52 7 100 5 107 -10 26 -80 58 -98 45z"/>
<path d="M4370 11101 c0 -6 5 -13 10 -16 6 -4 8 -11 4 -16 -3 -5 13 -17 35
-27 22 -9 41 -22 41 -29 0 -6 4 -14 9 -17 9 -6 61 15 61 25 0 10 -22 25 -60
39 -19 8 -46 22 -59 32 -26 20 -41 23 -41 9z"/>
<path d="M6175 9370 c3 -5 8 -10 11 -10 2 0 4 5 4 10 0 6 -5 10 -11 10 -5 0
-7 -4 -4 -10z"/>
<path d="M6625 9221 c-3 -5 -1 -12 5 -16 5 -3 10 1 10 9 0 18 -6 21 -15 7z"/>
<path d="M6222 9017 c-8 -10 -6 -13 7 -13 11 0 17 6 14 13 -3 7 -6 13 -8 13
-1 0 -7 -6 -13 -13z"/>
<path d="M6235 8970 c-3 -5 -1 -10 4 -10 6 0 11 5 11 10 0 6 -2 10 -4 10 -3 0
-8 -4 -11 -10z"/>
<path d="M6173 8943 c9 -2 23 -2 30 0 6 3 -1 5 -18 5 -16 0 -22 -2 -12 -5z"/>
<path d="M6087 8873 c-12 -11 -8 -23 8 -23 8 0 15 7 15 15 0 16 -12 20 -23 8z"/>
<path d="M6030 8830 c0 -5 7 -10 15 -10 8 0 15 5 15 10 0 6 -7 10 -15 10 -8 0
-15 -4 -15 -10z"/>
<path d="M6520 8275 c0 -8 7 -15 15 -15 8 0 15 7 15 15 0 8 -7 15 -15 15 -8 0
-15 -7 -15 -15z"/>
</g>
</svg>
